# xmcd
#
# Track frame offsets:
#	150
#	17933
#	30877
#	47162
#	65178
#	87739
#	109428
#	126415
#	144343
#	165478
#	180512
#	203131
#	220675
#	239259
#	254096
#	276365
#
# Disc length: 3878 seconds
#
# Revision: 1
# Processed by: cddbd v1.5.2PL0 Copyright (c) Steve Scherf et al.
# Submitted via: EasyCDDAExtractor 15.3.0.1
#
DISCID=f40f2410
DTITLE=Mijares - El Privilegio De Amar... Lo Mejor De Mi
DYEAR=2007
DGENRE=Latin
TTITLE0=El Privilegio De Amar (Featuring Lucero)
TTITLE1=Si Tu Te Vas
TTITLE2=La Belleza
TTITLE3=Amigas, Amores
TTITLE4=Historia De Un Amor
TTITLE5=Hablame De Ti
TTITLE6=Estrella Mia
TTITLE7=Dulce Veneno
TTITLE8=Aunque No Estes
TTITLE9=Yo Sin Ti
TTITLE10=Te Extraño
TTITLE11=Dame Una Flor
TTITLE12=Acercate
TTITLE13=Buscare Un Lugar
TTITLE14=Si Me Enamoro
TTITLE15=Yo Te Amare
EXTD=
EXTT0=
EXTT1=
EXTT2=
EXTT3=
EXTT4=
EXTT5=
EXTT6=
EXTT7=
EXTT8=
EXTT9=
EXTT10=
EXTT11=
EXTT12=
EXTT13=
EXTT14=
EXTT15=
PLAYORDER=
